<?xml version="1.0" standalone="no"?>
<!DOCTYPE svg PUBLIC "-//W3C//DTD SVG 20010904//EN"
 "http://www.w3.org/TR/2001/REC-SVG-20010904/DTD/svg10.dtd">
<svg version="1.0" xmlns="http://www.w3.org/2000/svg"
 width="427.000000pt" height="427.000000pt" viewBox="0 0 427.000000 427.000000"
 preserveAspectRatio="xMidYMid meet">
<metadata>
Created by potrace 1.14, written by Peter Selinger 2001-2017
</metadata>
<g transform="translate(0.000000,427.000000) scale(0.100000,-0.100000)"
fill="#000000" stroke="none">
<path d="M152 4130 c-12 -11 -29 -34 -37 -51 -24 -45 -48 -286 -26 -250 5 7 7
23 5 35 -4 20 -4 20 4 1 5 -11 6 -29 2 -40 -10 -28 -12 -125 -3 -125 5 0 9
-25 9 -55 1 -31 7 -61 13 -68 6 -8 9 -27 8 -43 -1 -21 2 -28 12 -26 11 2 12 0
4 -10 -12 -13 -10 -27 21 -158 46 -195 81 -255 294 -508 200 -239 248 -338
277 -577 14 -110 14 -121 -1 -130 -114 -70 -198 -132 -218 -158 -70 -91 -163
-298 -190 -422 -20 -90 -26 -164 -14 -171 5 -3 4 -12 -3 -20 -6 -8 -8 -14 -4
-14 4 0 1 -8 -6 -17 -8 -9 -9 -14 -4 -11 7 4 10 -49 9 -150 -1 -130 3 -174 22
-255 21 -91 39 -249 37 -324 0 -19 4 -30 9 -27 6 4 5 -3 -1 -14 -14 -26 -14
-55 -1 -47 6 3 10 1 10 -4 0 -6 -8 -11 -17 -11 -10 0 -14 -4 -8 -8 12 -9 16
-44 4 -36 -5 3 -9 1 -9 -5 0 -5 6 -12 13 -14 10 -4 10 -6 0 -6 -7 -1 -13 -6
-13 -12 0 -5 4 -8 8 -5 5 3 9 -1 9 -9 0 -8 -5 -11 -10 -8 -6 4 -7 -10 -3 -38
10 -61 10 -59 2 -109 -3 -25 -4 -64 0 -86 l6 -42 121 3 c67 1 145 6 172 9 48
7 124 33 135 47 3 3 20 14 37 23 26 13 33 23 33 46 0 16 -5 32 -10 35 -6 4 -8
11 -5 16 4 5 -2 10 -12 11 -10 0 -23 2 -30 2 -7 1 -18 7 -25 14 -6 6 -18 12
-25 12 -19 0 -26 42 -14 86 6 22 46 100 90 174 l79 135 93 -2 c100 -2 197 -18
240 -39 54 -27 81 -158 85 -424 1 -96 3 -179 3 -183 2 -14 268 3 336 22 22 6
58 13 80 17 46 7 75 20 75 34 0 17 -55 89 -68 90 -7 0 -24 12 -39 26 -24 24
-25 30 -18 87 12 108 65 270 121 364 51 88 110 125 254 163 55 15 245 15 282
1 60 -23 102 -83 202 -286 108 -221 136 -294 136 -356 0 -32 4 -42 20 -46 11
-3 20 -10 20 -17 0 -14 445 -9 473 6 16 8 18 18 14 50 -7 50 -29 75 -81 89
-90 24 -146 68 -184 144 -70 143 -53 310 56 532 23 48 42 105 46 137 5 34 14
61 24 68 18 13 26 28 63 113 12 28 36 82 54 120 95 205 99 217 109 325 2 25
18 84 35 132 17 49 31 94 31 102 0 15 42 26 99 26 81 0 299 33 350 53 97 37
219 179 282 327 53 126 48 187 -20 241 -17 13 -44 34 -61 47 l-30 24 0 123 0
124 43 35 c74 61 137 188 172 351 9 39 20 93 26 122 7 28 8 68 5 88 -9 46 -57
101 -103 116 -49 16 -196 6 -298 -21 -96 -25 -224 -70 -230 -81 -3 -4 -36 11
-73 33 -86 53 -210 103 -320 130 -69 16 -118 21 -232 20 -80 0 -158 -4 -175
-10 -28 -8 -35 -4 -100 55 -130 119 -289 212 -365 213 -31 0 -120 -41 -142
-66 -27 -31 -57 -121 -84 -259 -38 -188 -25 -293 48 -387 l29 -37 -18 -51
c-10 -27 -21 -50 -25 -50 -5 0 -8 -6 -8 -14 0 -26 -39 -63 -82 -75 -24 -7 -59
-17 -78 -22 -97 -28 -113 -58 -113 -214 0 -104 23 -255 42 -280 5 -5 12 -21
16 -35 4 -14 16 -36 27 -49 10 -13 17 -25 15 -27 -1 -1 -54 -7 -117 -13 -219
-20 -385 -41 -437 -56 -28 -8 -61 -15 -73 -15 -25 0 -150 -34 -228 -61 -83
-30 -82 -30 -82 62 0 90 -15 197 -35 244 -7 17 -18 48 -25 70 -7 22 -16 45
-21 50 -4 6 -22 37 -39 70 -17 33 -47 78 -66 101 -19 24 -34 47 -34 52 0 6 -3
12 -7 14 -5 2 -28 29 -52 61 -24 31 -47 57 -51 57 -4 0 -10 8 -14 18 -3 9 -19
35 -36 57 -16 22 -46 74 -65 115 -20 41 -40 83 -45 92 -6 10 -10 27 -10 39 0
11 -5 30 -12 42 -6 12 -19 56 -28 97 -10 41 -22 95 -28 120 -6 25 -16 70 -23
100 -12 61 -24 103 -65 233 -21 68 -36 97 -66 127 -34 36 -43 40 -86 40 -35 0
-54 -6 -70 -20z m-35 -375 c0 -8 -4 -12 -9 -9 -5 3 -6 10 -3 15 9 13 12 11 12
-6z m18 -105 c3 -6 -1 -7 -9 -4 -18 7 -21 14 -7 14 6 0 13 -4 16 -10z m-4 -27
c13 -16 12 -17 -3 -4 -10 7 -18 15 -18 17 0 8 8 3 21 -13z m26 -155 c-3 -8 -6
-5 -6 6 -1 11 2 17 5 13 3 -3 4 -12 1 -19z m8 -28 c3 -5 1 -10 -4 -10 -6 0
-11 5 -11 10 0 6 2 10 4 10 3 0 8 -4 11 -10z m195 -1945 c-5 -7 -6 -16 -2 -21
4 -4 -1 -2 -10 5 -20 15 -17 28 6 28 11 0 13 -4 6 -12z m-22 -40 c-3 -3 -9 2
-12 12 -6 14 -5 15 5 6 7 -7 10 -15 7 -18z m22 -19 c0 -2 -7 -7 -16 -10 -8 -3
-12 -2 -9 4 6 10 25 14 25 6z m-14 -83 c-2 -15 -9 -29 -17 -31 -9 -2 -10 0 -4
5 6 4 10 18 9 31 -1 12 2 22 7 22 4 0 6 -12 5 -27z m-13 -60 c-7 -2 -13 -9
-13 -14 0 -6 6 -7 13 -3 9 6 9 5 0 -8 -7 -8 -10 -18 -6 -21 3 -4 1 -7 -5 -7
-6 0 -9 12 -8 28 5 34 4 32 19 31 10 0 10 -2 0 -6z"/>
</g>
</svg>
